<svg width="18" height="18" viewBox="0 0 18 18" fill="none" xmlns="http://www.w3.org/2000/svg">
<path d="M15.2134 3.95389H7.18157C6.96076 3.29805 6.34042 2.82422 5.61107 2.82422C4.88172 2.82422 4.26139 3.29805 4.04057 3.95389H2.78687C2.49563 3.95389 2.25952 4.19 2.25952 4.48124C2.25952 4.77247 2.49563 5.00858 2.78687 5.00858H4.04061C4.26142 5.66442 4.88176 6.13826 5.61111 6.13826C6.34046 6.13826 6.96079 5.66442 7.18161 5.00858H15.2134C15.5047 5.00858 15.7408 4.77247 15.7408 4.48124C15.7408 4.19 15.5047 3.95389 15.2134 3.95389ZM5.61107 5.08357C5.27895 5.08357 5.00874 4.81336 5.00874 4.48124C5.00874 4.14912 5.27895 3.87891 5.61107 3.87891C5.94319 3.87891 6.2134 4.14912 6.2134 4.48124C6.2134 4.81336 5.94319 5.08357 5.61107 5.08357Z" fill="#A18A68"/>
<path d="M15.2134 8.47269H13.9597C13.7388 7.81685 13.1185 7.34302 12.3892 7.34302C11.6598 7.34302 11.0395 7.81685 10.8187 8.47269H2.78687C2.49563 8.47269 2.25952 8.7088 2.25952 9.00004C2.25952 9.29127 2.49563 9.52738 2.78687 9.52738H10.8187C11.0395 10.1832 11.6599 10.6571 12.3892 10.6571C13.1185 10.6571 13.7389 10.1832 13.9597 9.52738H15.2134C15.5047 9.52738 15.7408 9.29127 15.7408 9.00004C15.7408 8.7088 15.5047 8.47269 15.2134 8.47269ZM12.3892 9.60237C12.0571 9.60237 11.7869 9.33216 11.7869 9.00004C11.7869 8.66792 12.0571 8.39771 12.3892 8.39771C12.7213 8.39771 12.9915 8.66792 12.9915 9.00004C12.9915 9.33216 12.7213 9.60237 12.3892 9.60237Z" fill="#A18A68"/>
<path d="M15.2134 12.9914H9.44096C9.22014 12.3355 8.59981 11.8617 7.87046 11.8617C7.14111 11.8617 6.52078 12.3355 6.29996 12.9914H2.78687C2.49563 12.9914 2.25952 13.2275 2.25952 13.5187C2.25952 13.8099 2.49563 14.0461 2.78687 14.0461H6.29996C6.52078 14.7019 7.14111 15.1757 7.87046 15.1757C8.59981 15.1757 9.22014 14.7019 9.44096 14.0461H15.2134C15.5047 14.0461 15.7408 13.8099 15.7408 13.5187C15.7408 13.2275 15.5047 12.9914 15.2134 12.9914ZM7.87046 14.1211C7.53834 14.1211 7.26813 13.8509 7.26813 13.5187C7.26813 13.1866 7.53834 12.9164 7.87046 12.9164C8.20258 12.9164 8.47279 13.1866 8.47279 13.5187C8.47279 13.8508 8.20258 14.1211 7.87046 14.1211Z" fill="#A18A68"/>
</svg>
