<svg width="22" height="17" viewBox="0 0 22 17" fill="none" xmlns="http://www.w3.org/2000/svg">
<g id="Group">
<g id="Menu 1">
<path id="Vector" d="M1.6278 2.87494L20.371 2.87494C20.7158 2.87494 20.9955 2.45491 20.9953 1.93747C20.9951 1.41995 20.7151 1 20.3702 1L1.62708 1C1.28219 1 1.00248 1.42003 1.00268 1.93747C1.00288 2.45491 1.28297 2.87494 1.6278 2.87494Z" fill="black" stroke="white" stroke-width="0.2"/>
<path id="Vector_2" d="M20.3705 7.56238L1.62732 7.56238C1.28243 7.56238 1.00273 7.98241 1.00293 8.49984C1.00313 9.01728 1.28321 9.43731 1.62805 9.43731L20.3712 9.43731C20.7161 9.43731 20.9958 9.01728 20.9956 8.49985C20.9954 7.98241 20.7153 7.56238 20.3705 7.56238Z" fill="black" stroke="white" stroke-width="0.2"/>
<path id="Vector_3" d="M20.3702 14.125L7.87499 14.125C7.53011 14.125 7.2504 14.545 7.25059 15.0625C7.25078 15.58 7.53085 15.9999 7.87568 15.9999L20.3709 15.9999C20.7158 15.9999 20.9955 15.5799 20.9953 15.0625C20.9952 14.545 20.7151 14.125 20.3702 14.125Z" fill="black" stroke="white" stroke-width="0.2"/>
</g>
</g>
</svg>
