<svg width="120" height="27" viewBox="0 0 120 27" fill="none" xmlns="http://www.w3.org/2000/svg">
<path d="M16.3037 0.296875V19.916C16.3037 21.1009 16.0872 22.1035 15.6543 22.9238C15.2214 23.7214 14.6403 24.3708 13.9111 24.8721C13.182 25.3506 12.3389 25.6924 11.3818 25.8975C10.4476 26.0798 9.47917 26.1709 8.47656 26.1709C7.97526 26.1709 7.38281 26.1139 6.69922 26C6.03841 25.9089 5.34342 25.7607 4.61426 25.5557C3.90788 25.3278 3.22428 25.0771 2.56348 24.8037C1.90267 24.5303 1.3444 24.2227 0.888672 23.8809L2.63184 21.1123C2.8597 21.2718 3.17871 21.4427 3.58887 21.625C4.02181 21.7845 4.48893 21.944 4.99023 22.1035C5.49154 22.2402 6.01562 22.3656 6.5625 22.4795C7.10938 22.5934 7.62207 22.6504 8.10059 22.6504C9.30827 22.6504 10.2653 22.4225 10.9717 21.9668C11.7008 21.4883 12.0882 20.6908 12.1338 19.5742V0.296875H16.3037Z" fill="#854D0E" fill-opacity="0.8"/>
<path d="M30.8984 22.5479L35.6836 0.80957H37.29V9.93555L33.5645 26.1367H28.1982L21.8066 0.80957H26.4551L30.8984 22.5479ZM49.5947 0.80957H54.2432L47.4414 26.1367H42.1094L38.6914 10.585V0.80957H40.332L44.7754 22.5479L49.5947 0.80957ZM59.7461 0.80957H63.8477V26H59.7461V0.80957ZM76.8359 26H72.4951L67.7441 16.874C67.6758 16.874 67.596 16.8854 67.5049 16.9082C67.4365 16.9082 67.3226 16.9082 67.1631 16.9082C67.0036 16.9082 66.7643 16.9082 66.4453 16.9082C66.1491 16.9082 65.7503 16.9082 65.249 16.9082V13.9004H67.5732C68.0745 13.9004 68.5758 13.8206 69.0771 13.6611C69.5785 13.4788 70.0342 13.194 70.4443 12.8066C70.8545 12.4193 71.1849 11.8838 71.4355 11.2002C71.6862 10.4938 71.8115 9.62793 71.8115 8.60254C71.8115 8.19238 71.7546 7.72526 71.6406 7.20117C71.5267 6.6543 71.2874 6.1416 70.9229 5.66309C70.5811 5.16178 70.0911 4.75163 69.4531 4.43262C68.8151 4.09082 67.972 3.91992 66.9238 3.91992H65.249V0.80957H66.9922C68.0632 0.80957 69.1227 0.980469 70.1709 1.32227C71.2191 1.66406 72.1533 2.17676 72.9736 2.86035C73.8167 3.54395 74.4889 4.37565 74.9902 5.35547C75.5143 6.3125 75.7764 7.39486 75.7764 8.60254C75.7764 10.4255 75.3548 11.9749 74.5117 13.251C73.6686 14.527 72.5293 15.4727 71.0938 16.0879L76.8359 26ZM86.5771 0.80957V22.8896H98.1641V26H82.4072V0.80957H86.5771ZM115.117 0.80957H119.8L112.314 15.7461V26H108.145V17.5918L115.117 0.80957ZM105.718 0.80957L109.512 10.6191L107.666 15.0967L101.035 0.80957H105.718Z" fill="black"/>
</svg>
